<svg xmlns="http://www.w3.org/2000/svg" width="19" height="18" fill="none"><path fill="#14213D" fill-rule="evenodd" d="M18.75 9a.75.75 0 0 1-.386.656l-2.282 1.268a75.748 75.748 0 0 1-14.193 6.084l-.665.208A.75.75 0 0 1 .25 16.5v-5.75c0-.391.3-.716.69-.748l.228-.018A44.251 44.251 0 0 0 7.555 9a44.249 44.249 0 0 0-6.478-.992l-.135-.01A.75.75 0 0 1 .25 7.25V1.5a.75.75 0 0 1 .974-.716l.665.208a75.749 75.749 0 0 1 14.193 6.084l2.282 1.268A.75.75 0 0 1 18.75 9Zm-2.294 0-1.103-.612A74.25 74.25 0 0 0 1.75 2.52V6.56c2.93.264 5.828.81 8.654 1.631l.305.089a.75.75 0 0 1-.001 1.44l-.39.113A45.747 45.747 0 0 1 1.75 11.44v4.04a74.247 74.247 0 0 0 13.603-5.868L16.456 9Z" clip-rule="evenodd"/></svg>